<mxfile host="app.diagrams.net" agent="Mozilla/5.0 (Windows NT 10.0; Win64; x64) AppleWebKit/537.36 (KHTML, like Gecko) Chrome/136.0.0.0 Safari/537.36" version="27.0.6">
  <diagram name="Страница — 1" id="KRG4bTz2SitcnZZWS7cp">
    <mxGraphModel dx="1426" dy="751" grid="1" gridSize="10" guides="1" tooltips="1" connect="1" arrows="1" fold="1" page="1" pageScale="1" pageWidth="827" pageHeight="1169" math="0" shadow="0">
      <root>
        <mxCell id="0" />
        <mxCell id="1" parent="0" />
        <mxCell id="aleAu2NHdvZWktf_HvtS-2" value="Логотип" style="ellipse;whiteSpace=wrap;html=1;aspect=fixed;" parent="1" vertex="1">
          <mxGeometry x="100" y="50" width="70" height="70" as="geometry" />
        </mxCell>
        <mxCell id="aleAu2NHdvZWktf_HvtS-3" value="" style="rounded=0;whiteSpace=wrap;html=1;" parent="1" vertex="1">
          <mxGeometry x="270" y="60" width="700" height="50" as="geometry" />
        </mxCell>
        <mxCell id="aleAu2NHdvZWktf_HvtS-4" value="Главная" style="text;html=1;align=center;verticalAlign=middle;whiteSpace=wrap;rounded=0;" parent="1" vertex="1">
          <mxGeometry x="290" y="67.5" width="60" height="30" as="geometry" />
        </mxCell>
        <mxCell id="aleAu2NHdvZWktf_HvtS-5" value="Упражнения" style="text;html=1;align=center;verticalAlign=middle;whiteSpace=wrap;rounded=0;" parent="1" vertex="1">
          <mxGeometry x="360" y="67.5" width="60" height="30" as="geometry" />
        </mxCell>
        <mxCell id="aleAu2NHdvZWktf_HvtS-6" value="Журнал тренировок" style="text;html=1;align=center;verticalAlign=middle;whiteSpace=wrap;rounded=0;" parent="1" vertex="1">
          <mxGeometry x="430" y="68.13" width="130" height="30" as="geometry" />
        </mxCell>
        <mxCell id="aleAu2NHdvZWktf_HvtS-8" value="Весовой журнал" style="text;html=1;align=center;verticalAlign=middle;whiteSpace=wrap;rounded=0;" parent="1" vertex="1">
          <mxGeometry x="550" y="67.5" width="110" height="33.75" as="geometry" />
        </mxCell>
        <mxCell id="aleAu2NHdvZWktf_HvtS-11" value="Весовой журнал" style="text;html=1;align=center;verticalAlign=middle;whiteSpace=wrap;rounded=0;" parent="1" vertex="1">
          <mxGeometry x="650" y="73.75" width="120" height="22.5" as="geometry" />
        </mxCell>
        <mxCell id="aleAu2NHdvZWktf_HvtS-14" value="Трекер питания" style="text;html=1;align=center;verticalAlign=middle;whiteSpace=wrap;rounded=0;" parent="1" vertex="1">
          <mxGeometry x="780" y="63.75" width="90" height="42.5" as="geometry" />
        </mxCell>
        <mxCell id="aleAu2NHdvZWktf_HvtS-15" value="Результаты" style="text;html=1;align=center;verticalAlign=middle;whiteSpace=wrap;rounded=0;" parent="1" vertex="1">
          <mxGeometry x="880" y="70" width="60" height="30" as="geometry" />
        </mxCell>
        <mxCell id="FVaGUDg7iJTkkCs5LBQj-1" value="" style="rounded=0;whiteSpace=wrap;html=1;" vertex="1" parent="1">
          <mxGeometry x="270" y="170" width="700" height="430" as="geometry" />
        </mxCell>
        <mxCell id="FVaGUDg7iJTkkCs5LBQj-2" value="&lt;i style=&quot;box-sizing: border-box; color: rgb(255, 255, 255); font-family: -apple-system, BlinkMacSystemFont, &amp;quot;Segoe UI&amp;quot;, Roboto, &amp;quot;Helvetica Neue&amp;quot;, Arial, &amp;quot;Noto Sans&amp;quot;, sans-serif, &amp;quot;Apple Color Emoji&amp;quot;, &amp;quot;Segoe UI Emoji&amp;quot;, &amp;quot;Segoe UI Symbol&amp;quot;, &amp;quot;Noto Color Emoji&amp;quot;; font-size: 16px; background-color: rgb(97, 96, 92);&quot;&gt;© 2025 Active Life, Inc. Все права защищены.&lt;/i&gt;" style="rounded=0;whiteSpace=wrap;html=1;" vertex="1" parent="1">
          <mxGeometry x="270" y="690" width="700" height="70" as="geometry" />
        </mxCell>
        <mxCell id="FVaGUDg7iJTkkCs5LBQj-3" value="Текст" style="text;html=1;align=center;verticalAlign=middle;whiteSpace=wrap;rounded=0;" vertex="1" parent="1">
          <mxGeometry x="575" y="360" width="60" height="30" as="geometry" />
        </mxCell>
      </root>
    </mxGraphModel>
  </diagram>
</mxfile>
